<?xml version="1.0" encoding="utf-8"?>
<!-- Generator: Adobe Illustrator 17.0.0, SVG Export Plug-In . SVG Version: 6.00 Build 0)  -->
<!DOCTYPE svg PUBLIC "-//W3C//DTD SVG 1.1//EN" "http://www.w3.org/Graphics/SVG/1.1/DTD/svg11.dtd">
<svg version="1.1" id="Слой_1" xmlns="http://www.w3.org/2000/svg" xmlns:xlink="http://www.w3.org/1999/xlink" x="0px" y="0px"
	 width="716.7px" height="135.808px" viewBox="0 0 716.7 135.808" enable-background="new 0 0 716.7 135.808" xml:space="preserve">
<g>
	<path fill="#309E31" d="M186.811,83.62c2.965,3.262,6.524,5.634,10.972,7.413c4.447,1.779,9.488,2.669,15.715,2.669
		c2.966,0,5.931-0.297,8.303-0.594c2.669-0.296,4.744-0.889,6.82-1.779c2.076-0.593,3.855-1.482,5.634-2.075
		c1.483-0.89,2.965-1.483,4.152-2.076l-2.076-4.448c-1.187,0.593-2.373,1.186-3.559,1.779c-1.186,0.593-2.372,0.89-3.855,1.483
		c-1.482,0.296-2.964,0.89-4.744,0.89c-1.779,0.296-3.855,0.296-6.227,0.296c-4.448,0-8.302-0.89-10.971-2.669
		c-2.965-1.779-5.041-4.151-6.82-6.82c-1.483-2.965-2.669-6.523-3.262-10.378c-0.593-4.151-0.89-8.303-0.89-13.047
		c0-3.559,0.297-7.413,0.594-11.268c0.296-3.855,1.186-7.117,2.668-10.082c1.483-2.965,3.262-5.337,5.931-7.413
		c2.668-1.779,6.227-2.965,10.675-2.965c4.151,0,7.709,1.186,10.674,3.262c2.966,2.075,4.745,5.634,5.635,10.081h4.744v-14.53
		c-1.483-0.592-2.966-1.186-4.744-1.778c-1.78-0.594-3.559-0.89-5.635-1.186c-2.075-0.297-3.855-0.297-5.93-0.594
		c-1.779,0-3.558-0.296-5.041-0.296c-6.523,0-11.861,0.89-16.605,2.668c-4.448,1.78-8.303,4.448-11.268,7.71
		c-2.966,3.262-5.041,7.414-6.524,12.158c-1.482,4.744-2.075,10.378-2.075,16.309c0,5.634,0.593,10.971,2.075,15.419
		C182.066,76.8,184.142,80.655,186.811,83.62"/>
	<path fill="#309E31" d="M476.811,91.329c3.558-0.296,7.117-1.482,9.785-2.965c2.966-1.779,5.338-4.151,6.82-7.413
		c1.78-3.262,2.669-7.709,2.669-13.344c0-4.151-0.592-7.413-1.779-10.378c-1.186-2.965-2.965-5.041-5.634-7.116
		c-2.669-1.78-5.93-2.966-10.082-3.855c-4.151-0.89-9.192-1.186-15.123-1.186h-6.226V27.576c0-1.778,0.296-2.965,1.185-3.558
		c0.89-0.593,2.373-0.593,4.745-0.593h8.896c2.669,0,5.041,0,6.82,0.297c1.779,0.296,3.262,0.593,4.151,1.482
		c1.186,0.89,2.076,2.076,2.668,3.559c0.594,1.482,1.484,3.558,2.077,6.227h3.854V18.681h-50.409h-4.151v2.372
		c0.296,0,0.593,0.296,1.483,0.296c0.889,0.297,1.482,0.594,1.778,0.89c0.297,0.296,0.594,0.89,0.89,1.779
		c0,0.89,0.297,1.78,0.297,2.966V41.81v26.984V83.62c0,1.186,0,2.372-0.297,2.965c0,0.889-0.296,1.483-0.89,1.779
		c-0.296,0.296-0.889,0.89-1.778,0.89c-0.89,0.296-1.187,0.296-1.483,0.296v2.373h27.577
		C469.102,91.923,472.956,91.923,476.811,91.329 M458.723,85.992c-0.593-0.593-0.89-1.186-0.89-2.076
		c0-0.889-0.296-2.075-0.296-3.558V49.519h6.227c5.634,0,9.785,1.483,12.157,4.448c2.372,2.965,3.559,7.71,3.559,14.233
		c0,4.448-0.297,7.71-1.187,10.379c-0.888,2.668-1.778,4.448-3.261,5.93c-1.483,1.187-2.965,2.076-4.448,2.669
		c-1.779,0.296-3.558,0.593-5.338,0.593c-1.779-0.297-3.261-0.297-4.151-0.593C460.205,86.882,459.316,86.585,458.723,85.992"/>
	<path fill="#309E31" d="M398.826,89.549c-0.297,0-0.593-0.296-1.483-0.296c-0.89-0.296-1.482-0.593-1.778-0.89
		c-0.297-0.296-0.594-0.889-0.89-1.779c0-0.889-0.297-1.779-0.297-2.965v-20.46h7.413c3.855,0,7.413-0.297,10.972-0.89
		c3.558-0.593,6.523-1.779,9.192-3.262c2.668-1.778,4.744-3.854,6.227-7.116c1.482-2.965,2.372-7.116,2.372-12.158
		c0-4.744-0.89-8.599-2.075-11.268c-1.483-2.668-3.559-5.041-5.931-6.523c-2.372-1.483-5.338-2.372-8.6-2.669
		c-3.261-0.296-6.523-0.593-10.081-0.593h-24.908h-4.151v2.372c0.296,0,0.593,0.297,1.482,0.297c0.89,0.297,1.483,0.593,1.78,0.889
		c0.295,0.297,0.592,0.89,0.889,1.78c0,0.889,0.296,1.779,0.296,2.965v56.339c0,1.187,0,2.373-0.296,2.966
		c0,0.889-0.297,1.483-0.889,1.779c-0.297,0.296-0.89,0.89-1.78,0.89c-0.889,0.296-1.186,0.296-1.482,0.296v2.372h24.018V89.549z
		 M394.675,26.983c0-0.593,0-1.186,0.296-1.779c0-0.594,0.297-0.89,0.594-1.186c0.296-0.297,0.888-0.594,1.778-0.594
		s1.779-0.296,3.262-0.296c1.779,0,3.558,0.296,5.338,0.593c1.779,0.593,2.964,1.483,4.448,2.669
		c1.185,1.186,2.075,2.965,2.965,5.041c0.592,2.075,0.889,4.744,0.889,7.709c0,6.227-0.889,10.972-2.669,14.234
		c-1.779,3.261-5.041,5.041-9.488,5.041h-7.413V26.983z"/>
	<path fill="#309E31" d="M365.022,75.02h-4.745c-0.593,2.965-1.186,5.041-1.779,6.82c-0.593,1.78-1.186,2.966-2.372,3.855
		c-0.89,0.889-2.373,1.483-4.151,1.483c-1.78,0.296-4.152,0.296-7.413,0.296c-2.966,0-5.338,0-6.821-0.296
		c-1.779-0.297-2.965-0.594-3.855-1.186c-0.889-0.594-1.482-1.483-1.482-2.372c-0.297-1.186-0.297-2.373-0.297-4.152V56.339h9.786
		h2.965c1.186,0,2.372,0.297,3.558,0.297s2.372,0.296,3.559,0.593c1.186,0.296,2.075,0.593,2.964,1.186v-9.489
		c-0.889,0.593-1.778,0.889-2.964,1.186c-1.187,0.297-2.373,0.593-3.559,0.593c-1.186,0.297-2.372,0.297-3.558,0.297h-2.965h-9.786
		V26.687c0-1.483,0.297-2.669,0.593-3.262c0.593-0.593,1.483-0.593,2.966-0.593h8.006c2.668,0,5.04,0,6.82,0.296
		c1.779,0.297,3.261,0.594,4.151,1.483c1.186,0.889,2.076,2.076,2.669,3.558c0.593,1.483,1.482,3.559,2.076,6.227h3.855V18.681
		h-46.851h-4.152v2.372c0.297,0,0.593,0.296,1.483,0.296c0.889,0.297,1.483,0.593,1.779,0.89c0.296,0.296,0.593,0.889,0.89,1.779
		c0,0.89,0.296,1.779,0.296,2.965v56.34c0,1.186,0,2.372-0.296,2.965c0,0.89-0.297,1.483-0.89,1.779
		c-0.296,0.297-0.89,0.89-1.779,0.89c-0.89,0.296-1.186,0.296-1.483,0.296v2.372h52.782V75.02z"/>
	<path fill="#309E31" d="M284.367,91.329c3.558-0.296,7.117-1.482,9.786-2.965c2.964-1.779,5.337-4.151,7.116-7.413
		s2.669-7.709,2.669-13.344c0-4.151-0.594-7.413-1.78-10.378c-1.186-2.965-2.965-5.041-5.633-7.116
		c-2.669-1.78-5.931-2.966-10.082-3.855c-4.152-0.89-9.193-1.186-15.123-1.186h-6.227V27.576c0-1.778,0.296-2.965,1.186-3.558
		c0.89-0.593,2.372-0.593,4.745-0.593h8.895c2.669,0,5.041,0,6.82,0.297c1.779,0.296,3.262,0.593,4.152,1.482
		c1.186,0.89,2.075,2.076,2.668,3.559c0.594,1.482,1.483,3.558,2.076,6.227h3.855V18.681h-50.409h-4.152v2.372
		c0.297,0,0.593,0.296,1.483,0.296c0.889,0.297,1.483,0.594,1.779,0.89c0.296,0.296,0.593,0.89,0.89,1.779
		c0,0.89,0.296,1.78,0.296,2.966v1.482v13.047V68.2v10.972v0.297v3.854c0,1.186,0,2.076-0.296,2.965c0,0.89-0.297,1.483-0.89,1.78
		c-0.296,0.296-0.89,0.889-1.779,0.889c-0.89,0.297-1.186,0.297-1.483,0.297v2.669h27.577
		C276.954,91.923,280.512,91.923,284.367,91.329 M266.279,85.992c-0.593-0.593-0.89-1.186-0.89-2.076
		c0-0.889-0.296-2.075-0.296-3.558V49.519h6.227c5.634,0,9.785,1.483,12.157,4.448c2.373,2.965,3.559,7.71,3.559,14.233
		c0,4.448-0.297,7.71-1.186,10.379c-0.89,2.668-1.779,4.448-3.262,5.93c-1.483,1.187-2.965,2.076-4.448,2.669
		c-1.779,0.296-3.558,0.593-5.338,0.593c-1.779-0.297-2.965-0.297-4.151-0.593C267.761,86.882,266.872,86.585,266.279,85.992"/>
	<rect x="178.508" y="112.679" fill="#309E31" width="537.6" height="7.116"/>
	<path fill="#309E31" d="M673.111,64.345c1.482,2.076,2.669,3.855,4.151,5.634c1.186,1.779,2.668,3.558,3.855,5.338
		c1.186,1.778,2.372,3.558,3.854,5.337c1.484,2.076,2.669,3.855,3.856,5.93c1.185,1.78,2.075,3.855,2.965,5.634l24.908,0.297
		c-2.669-2.669-5.041-5.337-7.71-8.006c-2.372-2.669-4.447-5.041-5.931-6.524c-2.372-2.668-4.447-5.041-6.226-7.117
		c-2.076-2.372-3.855-4.447-5.634-6.523c-1.779-2.076-3.559-4.448-5.041-6.523c-1.483-2.076-3.262-4.745-4.744-7.117l1.185-1.483
		c1.78-2.372,3.856-4.744,6.228-7.709s4.744-5.931,7.413-8.6c2.668-2.964,5.041-5.633,7.709-8.006
		c2.669-2.372,4.745-4.151,6.82-5.634h-17.198c-0.593,1.483-1.482,3.262-2.669,5.338c-1.186,2.075-2.372,4.448-4.151,6.82
		c-1.483,2.372-3.262,5.041-4.744,7.709c-1.78,2.669-3.262,5.041-5.042,7.413c-1.779,2.373-3.261,4.745-4.744,6.524
		c-1.482,2.076-2.669,3.559-3.558,5.041C670.145,60.194,671.629,62.269,673.111,64.345"/>
	<path fill="#309E31" d="M671.035,89.55c-0.296,0-0.593-0.296-1.482-0.296c-0.89-0.297-1.483-0.594-1.78-0.89
		c-0.296-0.296-0.592-0.89-0.889-1.779c0-0.889-0.296-1.779-0.296-2.965V27.28c0-1.186,0-2.372,0.296-2.965
		c0-0.89,0.297-1.483,0.889-1.78c0.297-0.296,0.89-0.592,1.78-0.889c0.889-0.297,1.186-0.297,1.482-0.297v-2.668h-19.867h-4.152
		v2.372c0.297,0,0.594,0.296,1.484,0.296c0.889,0.297,1.482,0.594,1.778,0.89c0.297,0.296,0.594,0.89,0.89,1.779
		c0,0.89,0.297,1.78,0.297,2.966v56.339c0,1.186,0,2.373-0.297,2.965c0,0.89-0.296,1.483-0.89,1.78
		c-0.296,0.296-0.889,0.889-1.778,0.889c-0.89,0.297-1.187,0.297-1.484,0.297v2.372h24.019V89.55z"/>
	<path fill="#309E31" d="M511.505,83.026c0.889-4.151,2.669-10.082,5.041-17.495h23.425l3.262,9.489
		c1.483,4.151,2.669,7.71,3.262,10.675c0.89,2.965,1.482,5.041,1.482,6.523h18.682c-0.89-1.482-1.779-3.558-2.966-5.93
		c-1.185-2.372-2.669-5.93-4.151-10.378L542.64,27.873c-0.889-2.076-1.186-3.855-1.483-5.338c-0.296-1.482-0.296-2.668-0.593-3.558
		h-21.053v2.372c0.296,0,0.593,0.297,1.483,0.297c0.89,0.296,1.482,0.593,1.779,0.889c0.296,0.297,0.593,0.89,0.89,1.78v1.482
		c0,1.779-0.297,3.559-0.89,4.745l-11.861,29.059c-2.075,5.338-4.151,10.082-5.634,13.64c-1.482,3.558-2.966,6.82-3.854,9.193
		c-1.187,2.372-2.077,4.447-2.966,5.93c-0.89,1.483-1.483,2.669-2.075,3.854h13.343C510.022,90.143,510.615,87.178,511.505,83.026
		 M528.407,30.838l9.785,29.653h-20.164L528.407,30.838z"/>
	<path fill="#309E31" d="M594.828,89.55h-0.593c-0.296,0-0.593-0.296-1.482-0.296c-0.89-0.297-1.483-0.594-1.779-0.89
		c-0.297-0.296-0.593-0.89-0.89-1.779c0-0.889-0.296-1.779-0.296-2.965V55.45h28.466v27.873c0,1.186,0,2.373-0.297,2.965
		c0,0.89-0.296,1.483-0.89,1.78c-0.296,0.296-0.888,0.889-1.778,0.889c-0.89,0.297-1.187,0.297-1.483,0.297v2.372h24.018v-2.372
		c-0.296,0-0.593-0.297-1.482-0.297c-0.89-0.297-1.483-0.593-1.78-0.889c-0.296-0.297-0.592-0.89-0.889-1.78
		c0-0.889-0.296-1.779-0.296-2.965V68.794V68.2V41.513v-0.296v-14.53c0-1.186,0-2.372,0.296-2.965c0-0.89,0.297-1.483,0.889-1.779
		c0.297-0.297,0.89-0.594,1.78-0.89c0.889-0.296,1.186-0.296,1.482-0.296v-2.076h-19.867h-3.558v2.372
		c0.296,0,0.593,0.296,1.483,0.296c0.889,0.297,1.482,0.594,1.779,0.89c0.296,0.296,0.593,0.89,0.89,1.779
		c0,0.89,0.296,1.78,0.296,2.966v23.425h-28.466V26.984c0-1.186,0-2.373,0.296-2.966c0-0.889,0.297-1.483,0.889-1.779
		c0.297-0.296,0.89-0.593,1.78-0.89c0.889-0.296,1.186-0.296,1.482-0.296v-2.372h-19.866h-4.152v2.372
		c0.296,0,0.593,0.296,1.483,0.296c0.889,0.297,1.482,0.594,1.779,0.89c0.296,0.296,0.593,0.89,0.89,1.779
		c0,0.89,0.296,1.78,0.296,2.966v1.778v50.706v0.297v3.855c0,1.186,0,2.076-0.296,2.965c0,0.889-0.297,1.483-0.89,1.779
		c-0.297,0.296-0.89,0.89-1.779,0.89c-0.89,0.296-1.187,0.296-1.483,0.296v2.373h24.019L594.828,89.55z"/>
	<path fill="#309E31" d="M129.581,26.39c-1.483-2.076-2.965-4.151-4.448-6.227L42.996,67.31L3.262,44.478
		c-0.89,2.669-1.483,5.041-1.78,7.71l41.81,24.018L129.581,26.39z"/>
	<path fill="#309E31" d="M42.996,85.102L0.297,60.491C0,61.973,0,63.752,0,65.235c0,38.845,31.432,70.573,70.573,70.573
		c38.845,0,70.573-31.432,70.573-70.573c0-11.565-2.669-22.536-7.71-32.025L42.996,85.102z"/>
	<path fill="#309E31" d="M119.499,14.233c-2.076-2.076-4.151-3.559-6.227-5.338L42.996,49.519L9.192,30.245
		c-1.186,2.076-2.372,4.448-3.558,6.82l37.065,21.35L119.499,14.233z"/>
	<path fill="#309E31" d="M106.156,4.151c-2.668-1.482-5.337-2.965-8.302-4.151L42.996,31.728L18.385,17.791
		c-1.779,1.779-3.262,3.855-5.041,5.931L42.7,40.624L106.156,4.151z"/>
</g>
</svg>
